<svg width="80" height="80" viewBox="0 0 80 80" fill="none" xmlns="http://www.w3.org/2000/svg">
  <rect width="80" height="80" fill="#f5f5f5"/>
  <path d="M40 20C28.9543 20 20 28.9543 20 40C20 51.0457 28.9543 60 40 60C51.0457 60 60 51.0457 60 40C60 28.9543 51.0457 20 40 20ZM40 55C32.268 55 26 48.732 26 41C26 33.268 32.268 27 40 27C47.732 27 54 33.268 54 41C54 48.732 47.732 55 40 55Z" fill="#d9d9d9"/>
  <path d="M40 30C35.5817 30 32 33.5817 32 38C32 42.4183 35.5817 46 40 46C44.4183 46 48 42.4183 48 38C48 33.5817 44.4183 30 40 30ZM40 43C37.2386 43 35 40.7614 35 38C35 35.2386 37.2386 33 40 33C42.7614 33 45 35.2386 45 38C45 40.7614 42.7614 43 40 43Z" fill="#d9d9d9"/>
</svg> 